<svg width="1200" height="760" viewBox="0 0 1200 760" fill="none" xmlns="http://www.w3.org/2000/svg">
  <rect width="1200" height="760" fill="#D8EEF0"/>
  <rect x="118" y="88" width="964" height="584" rx="34" fill="#F9FBF7"/>
  <rect x="166" y="136" width="868" height="54" rx="27" fill="#234B57"/>
  <rect x="205" y="156" width="144" height="16" rx="8" fill="#D8EEF0"/>
  <rect x="760" y="150" width="84" height="26" rx="13" fill="#B9D88E"/>
  <rect x="864" y="150" width="84" height="26" rx="13" fill="#F9FBF7" opacity="0.75"/>
  <text x="190" y="318" fill="#1F3438" font-family="Arial, Helvetica, sans-serif" font-size="70" font-weight="800">Care that</text>
  <text x="190" y="386" fill="#1F3438" font-family="Arial, Helvetica, sans-serif" font-size="70" font-weight="800">feels clear.</text>
  <rect x="194" y="430" width="206" height="54" rx="27" fill="#E9552E"/>
  <text x="232" y="465" fill="#FFF8EA" font-family="Arial, Helvetica, sans-serif" font-size="24" font-weight="700">Book a visit</text>
  <rect x="614" y="244" width="324" height="282" rx="36" fill="#E8F3EE"/>
  <circle cx="776" cy="376" r="94" fill="#B9D88E"/>
  <path d="M776 308V444M708 376H844" stroke="#234B57" stroke-width="36" stroke-linecap="round"/>
  <rect x="712" y="544" width="268" height="22" rx="11" fill="#AACDD3"/>
  <rect x="190" y="548" width="374" height="22" rx="11" fill="#D7E2D2"/>
  <rect x="190" y="590" width="286" height="22" rx="11" fill="#D7E2D2"/>
</svg>
